<?xml version="1.0" encoding="UTF-8" standalone="no"?>
<svg
   xmlns:dc="http://purl.org/dc/elements/1.1/"
   xmlns:cc="http://creativecommons.org/ns#"
   xmlns:rdf="http://www.w3.org/1999/02/22-rdf-syntax-ns#"
   xmlns:svg="http://www.w3.org/2000/svg"
   xmlns="http://www.w3.org/2000/svg"
   xmlns:sodipodi="http://sodipodi.sourceforge.net/DTD/sodipodi-0.dtd"
   xmlns:inkscape="http://www.inkscape.org/namespaces/inkscape"
   style="width:24px;height:24px"
   viewBox="0 0 24 24"
   id="svg2"
   version="1.1"
   inkscape:version="0.91 r13725"
   sodipodi:docname="remote2.svg">
  <metadata
     id="metadata10">
    <rdf:RDF>
      <cc:Work
         rdf:about="">
        <dc:format>image/svg+xml</dc:format>
        <dc:type
           rdf:resource="http://purl.org/dc/dcmitype/StillImage" />
        <dc:title></dc:title>
      </cc:Work>
    </rdf:RDF>
  </metadata>
  <defs
     id="defs8" />
  <sodipodi:namedview
     pagecolor="#ffffff"
     bordercolor="#666666"
     borderopacity="1"
     objecttolerance="10"
     gridtolerance="10"
     guidetolerance="10"
     inkscape:pageopacity="0"
     inkscape:pageshadow="2"
     inkscape:window-width="640"
     inkscape:window-height="480"
     id="namedview6"
     showgrid="false"
     inkscape:zoom="9.8333333"
     inkscape:cx="12"
     inkscape:cy="12"
     inkscape:window-x="0"
     inkscape:window-y="0"
     inkscape:window-maximized="0"
     inkscape:current-layer="svg2" />
  <path
     d="M 9 9 A 1 1 0 0 0 8 10 L 8 22 A 1 1 0 0 0 9 23 L 15 23 A 1 1 0 0 0 16 22 L 16 10 A 1 1 0 0 0 15 9 L 9 9 z M 12 11 A 2 2 0 0 1 14 13 A 2 2 0 0 1 12 15 A 2 2 0 0 1 10 13 A 2 2 0 0 1 12 11 z "
     id="path4" />
  <path
     d="M 12,0 C 8.96,0 6.21,1.23 4.22,3.22 L 5.63,4.63 C 7.26,3 9.5,2 12,2 c 2.5,0 4.74,1 6.36,2.64 L 19.77,3.23 C 17.79,1.23 15.04,0 12,0"
     id="path3344" />
  <path
     d="M 7.05,6.05 8.46,7.46 C 9.37,6.56 10.62,6 12,6 c 1.38,0 2.63,0.56 3.54,1.46 L 16.95,6.05 C 15.68,4.78 13.93,4 12,4 10.07,4 8.32,4.78 7.05,6.05"
     id="path3342" />
</svg>
